<svg width="15" height="15" viewBox="0 0 15 15" fill="none" xmlns="http://www.w3.org/2000/svg">
<path d="M14.4138 3.85466e-08H10.8984C10.5748 3.85466e-08 10.3125 0.262324 10.3125 0.585938C10.3125 0.909551 10.5748 1.17188 10.8984 1.17188H12.9995L8.06188 6.10945C7.21353 5.43946 6.14291 5.03906 4.98047 5.03906C2.23424 5.03906 0 7.2733 0 10.0195C0 12.7658 2.23424 15 4.98047 15C7.7267 15 9.96094 12.7658 9.96094 10.0195C9.96094 8.85709 9.56054 7.78646 8.89052 6.93809L13.8281 2.00051V4.10156C13.8281 4.42518 14.0904 4.6875 14.4141 4.6875C14.7377 4.6875 15 4.42518 15 4.10156V0.585938C15 0.266982 14.7399 -0.000117149 14.4138 3.85466e-08ZM4.98047 13.8281C2.88041 13.8281 1.17188 12.1196 1.17188 10.0195C1.17188 7.91947 2.88041 6.21094 4.98047 6.21094C7.0805 6.21094 8.78906 7.92015 8.78906 10.0195C8.78906 12.1196 7.08053 13.8281 4.98047 13.8281Z" fill="#095EC1"/>
</svg>
