<svg width="88" height="88" viewBox="0 0 88 88" fill="none" xmlns="http://www.w3.org/2000/svg">
<g clip-path="url(#clip0_8002_6942)">
<path d="M44 88C68.3008 88 88 68.3008 88 44C88 19.6992 68.3008 0 44 0C19.6992 0 0 19.6992 0 44C0 68.3008 19.6992 88 44 88Z" fill="#DEEEFF"/>
<path d="M66.4008 36.0004C66.4008 35.576 66.2322 35.1691 65.9322 34.869C65.6321 34.569 65.2251 34.4004 64.8008 34.4004H44.8008V66.4004H64.8008C65.2251 66.4004 65.6321 66.2318 65.9322 65.9318C66.2322 65.6317 66.4008 65.2247 66.4008 64.8004V36.0004Z" fill="#095EC1"/>
<path d="M51.1996 28H21.5996V60H51.1996V28Z" fill="#095EC1"/>
<path d="M44.8008 60H51.2008L44.8008 66.4V60Z" fill="#6BAFFF"/>
<path d="M24.8 28.0004C26.073 28.0004 27.2939 27.4947 28.1941 26.5945C29.0943 25.6943 29.6 24.4734 29.6 23.2004C29.6 21.9274 29.0943 20.7065 28.1941 19.8063C27.2939 18.9061 26.073 18.4004 24.8 18.4004C23.527 18.4004 22.3061 18.9061 21.4059 19.8063C20.5057 20.7065 20 21.9274 20 23.2004C20 24.4734 20.5057 25.6943 21.4059 26.5945C22.3061 27.4947 23.527 28.0004 24.8 28.0004Z" fill="#6BAFFF"/>
<path d="M27.9996 28H21.5996V69.6H27.9996V28Z" fill="#6BAFFF"/>
</g>
<defs>
<clipPath id="clip0_8002_6942">
<rect width="88" height="88" fill="white"/>
</clipPath>
</defs>
</svg>
