<svg width="90" height="90" viewBox="0 0 90 90" fill="none" xmlns="http://www.w3.org/2000/svg">
<path d="M83.5714 6.42871H6.42859V83.5716H83.5714V6.42871Z" fill="#E8E7E8"/>
<path d="M22.0193 77.9119H77.7166L49.8679 25.9277L22.0193 77.9119Z" fill="#FBFAFB"/>
<path d="M56.8306 38.9237L53.3495 45.4218L49.8686 38.9237L46.3875 45.4218L42.9064 38.9237L49.8686 25.9277L56.8306 38.9237Z" fill="#FBFAFB"/>
<path d="M23.2593 33.7755C27.9071 33.7755 31.6749 30.0076 31.6749 25.3599C31.6749 20.7122 27.9071 16.9443 23.2593 16.9443C18.6116 16.9443 14.8438 20.7122 14.8438 25.3599C14.8438 30.0076 18.6116 33.7755 23.2593 33.7755Z" fill="#FBFAFB"/>
<path d="M10.8804 77.9131H48.0118L29.446 48.208L10.8804 77.9131Z" fill="#FBFAFB"/>
<path d="M29.4461 61.204L33.5083 54.7059L29.4461 48.208L25.3839 54.7059L29.4461 61.204Z" fill="#FBFAFB"/>
</svg>
