<svg width="36" height="37" viewBox="0 0 36 37" fill="none" xmlns="http://www.w3.org/2000/svg">
<rect y="0.5" width="36" height="36" rx="18" fill="#E8E7E8"/>
<g clip-path="url(#clip0_8002_6359)">
<path d="M23.3034 12.3627C24.6803 13.7395 25.4678 15.5978 25.4994 17.5447C25.531 19.4917 24.8041 21.3745 23.4725 22.7952L23.3034 22.9702L19.7675 26.5052C19.3189 26.9536 18.7166 27.2147 18.0827 27.2355C17.4487 27.2564 16.8306 27.0356 16.3534 26.6177L16.2334 26.5052L12.6967 22.9694C11.2902 21.5629 10.5 19.6552 10.5 17.6661C10.5 15.6769 11.2902 13.7693 12.6967 12.3627C14.1032 10.9562 16.0109 10.166 18 10.166C19.9892 10.166 21.8969 10.9562 23.3034 12.3627ZM18 15.1661C17.6717 15.1661 17.3467 15.2307 17.0433 15.3564C16.74 15.482 16.4644 15.6661 16.2323 15.8983C16.0001 16.1304 15.816 16.406 15.6903 16.7094C15.5647 17.0127 15.5 17.3378 15.5 17.6661C15.5 17.9944 15.5647 18.3195 15.6903 18.6228C15.816 18.9261 16.0001 19.2017 16.2323 19.4338C16.4644 19.666 16.74 19.8501 17.0433 19.9758C17.3467 20.1014 17.6717 20.1661 18 20.1661C18.6631 20.1661 19.299 19.9027 19.7678 19.4338C20.2367 18.965 20.5 18.3291 20.5 17.6661C20.5 17.003 20.2367 16.3671 19.7678 15.8983C19.299 15.4295 18.6631 15.1661 18 15.1661Z" fill="#707B93"/>
</g>
<defs>
<clipPath id="clip0_8002_6359">
<rect width="20" height="20" fill="white" transform="translate(8 8.5)"/>
</clipPath>
</defs>
</svg>
