<svg width="36" height="37" viewBox="0 0 36 37" fill="none" xmlns="http://www.w3.org/2000/svg">
<rect y="0.5" width="36" height="36" rx="18" fill="#E8E7E8"/>
<path fill-rule="evenodd" clip-rule="evenodd" d="M14.2917 9.04102C14.1259 9.04102 13.9669 9.10686 13.8497 9.22407C13.7325 9.34128 13.6667 9.50026 13.6667 9.66602V10.6035H13.0417C12.6716 10.6007 12.3046 10.6716 11.9621 10.812C11.6196 10.9523 11.3085 11.1594 11.0467 11.4211C10.785 11.6828 10.578 11.994 10.4376 12.3364C10.2972 12.6789 10.2264 13.0459 10.2292 13.416C10.2264 13.7861 10.2972 14.1531 10.4376 14.4956C10.578 14.8381 10.785 15.1492 11.0467 15.4109C11.3085 15.6727 11.6196 15.8797 11.9621 16.0201C12.3046 16.1604 12.6716 16.2313 13.0417 16.2285H14.3733C14.7032 16.7349 15.1349 17.167 15.6409 17.4974C16.147 17.8278 16.7162 18.0493 17.3125 18.1477V19.9369H13.2083C12.7925 19.9369 12.3892 20.0785 12.0883 20.3793C11.7883 20.6802 11.6458 21.0835 11.6458 21.4994V22.7494H13.1042V21.4994C13.1035 21.4691 13.1088 21.4391 13.12 21.411C13.1481 21.3999 13.1781 21.3945 13.2083 21.3952H18.0333H18.0417H18.05H22.7917C22.8219 21.3945 22.8519 21.3999 22.88 21.411C22.8911 21.4391 22.8965 21.4691 22.8958 21.4994V22.7494H24.3542V21.4994C24.3542 21.0835 24.2125 20.6802 23.9117 20.3793C23.6108 20.0793 23.2075 19.9369 22.7917 19.9369H18.7708V18.1485C19.367 18.0499 19.9362 17.8283 20.442 17.4977C20.9479 17.1672 21.3794 16.7349 21.7092 16.2285H23.0417C23.4118 16.2313 23.7788 16.1604 24.1212 16.0201C24.4637 15.8797 24.7749 15.6727 25.0366 15.4109C25.2983 15.1492 25.5054 14.8381 25.6457 14.4956C25.7861 14.1531 25.8569 13.7861 25.8542 13.416C25.8569 13.0459 25.7861 12.6789 25.6457 12.3364C25.5054 11.994 25.2983 11.6828 25.0366 11.4211C24.7749 11.1594 24.4637 10.9523 24.1212 10.812C23.7788 10.6716 23.4118 10.6007 23.0417 10.6035H22.4167V9.66602C22.4167 9.50026 22.3508 9.34128 22.2336 9.22407C22.1164 9.10686 21.9574 9.04102 21.7917 9.04102H14.2917ZM13.0417 12.0618H13.6667V13.8327C13.6667 14.1552 13.7008 14.4685 13.7667 14.7702H13.0417C12.8631 14.773 12.6857 14.7399 12.5201 14.6728C12.3546 14.6058 12.2042 14.5061 12.0779 14.3798C11.9515 14.2535 11.8519 14.1031 11.7848 13.9375C11.7178 13.772 11.6847 13.5946 11.6875 13.416C11.6847 13.2374 11.7178 13.0601 11.7848 12.8945C11.8519 12.7289 11.9515 12.5785 12.0779 12.4522C12.2042 12.3259 12.3546 12.2263 12.5201 12.1592C12.6857 12.0921 12.8631 12.059 13.0417 12.0618ZM23.0417 14.7702H22.3167C22.3832 14.4621 22.4167 14.1478 22.4167 13.8327V12.0618H23.0417C23.8058 12.0618 24.3958 12.6518 24.3958 13.416C24.3958 14.1802 23.8058 14.7702 23.0417 14.7702ZM16.125 25.666C16.125 26.5827 15.375 27.3327 14.4583 27.3327H10.2917C9.375 27.3327 8.625 26.5827 8.625 25.666C8.625 24.7494 9.375 23.9994 10.2917 23.9994H14.4583C15.375 23.9994 16.125 24.7494 16.125 25.666ZM25.7083 27.3327C26.625 27.3327 27.375 26.5827 27.375 25.666C27.375 24.7494 26.625 23.9994 25.7083 23.9994H21.5417C20.625 23.9994 19.875 24.7494 19.875 25.666C19.875 26.5827 20.625 27.3327 21.5417 27.3327H25.7083Z" fill="#707B93"/>
</svg>
