<svg width="48" height="48" viewBox="0 0 48 48" fill="none" xmlns="http://www.w3.org/2000/svg">
<g clip-path="url(#clip0_8022_1309)">
<path d="M24 48C37.255 48 48 37.255 48 24C48 10.745 37.255 0 24 0C10.745 0 0 10.745 0 24C0 37.255 10.745 48 24 48Z" fill="#DEEEFF"/>
<path d="M24.0012 37.9629C31.7131 37.9629 37.9649 31.7111 37.9649 23.9993C37.9649 16.2874 31.7131 10.0356 24.0012 10.0356C16.2894 10.0356 10.0376 16.2874 10.0376 23.9993C10.0376 31.7111 16.2894 37.9629 24.0012 37.9629Z" fill="#095EC1"/>
<path d="M20.7775 23.5075L17.0182 25.1185L15.4071 20.8221H20.2407L23.4633 16.5257V14.9146L17.1862 11.8125C14.1693 13.5034 11.8849 16.2509 10.7729 19.5257L13.2589 25.1185L16.4815 27.8039L20.7779 35.8601H22.3889L25.0743 27.8039L20.7775 23.5075Z" fill="#6BAFFF"/>
<path d="M37.9627 24C37.9627 18.7187 35.0303 14.1229 30.7046 11.75L27.2216 17.5549L29.907 19.166L32.5919 17.0182L34.203 19.1664H35.814V20.7775L30.4432 20.2403L28.295 23.4629L27.2207 29.3704L29.3689 32.0557L29.8 36.7004C34.6158 34.4972 37.9627 29.6413 37.9627 24Z" fill="#6BAFFF"/>
</g>
<defs>
<clipPath id="clip0_8022_1309">
<rect width="48" height="48" fill="white"/>
</clipPath>
</defs>
</svg>
