<svg width="31.000000" height="93.000000" viewBox="0 0 31 93" fill="none" xmlns="http://www.w3.org/2000/svg" xmlns:xlink="http://www.w3.org/1999/xlink">
	<desc>
			Created with Pixso.
	</desc>
	<defs/>
	<path id="Frame 482 --&gt; Frame 488" d="M1.02 0C0.55 0 0.17 0.56 0.17 1.26C0.17 1.97 0.55 2.53 1.02 2.53C1.5 2.53 1.87 1.97 1.87 1.26C1.87 0.56 1.5 0 1.02 0ZM28.95 46.1L26.47 43.63C26.28 43.43 26.28 43.12 26.47 42.92C26.67 42.72 26.98 42.72 27.18 42.92L30.01 45.75C30.21 45.95 30.21 46.26 30.01 46.45L27.18 49.28C26.98 49.48 26.67 49.48 26.47 49.28C26.28 49.08 26.28 48.77 26.47 48.58L28.95 46.1Z" fill="#FFFFFF" fill-opacity="1.000000" fill-rule="nonzero"/>
	<path id="Frame 482 --&gt; Frame 488" d="M1.83 -0.27Q1.52 -0.5 1.02 -0.5Q0.53 -0.5 0.21 -0.27Q-0.33 0.15 -0.33 1.26Q-0.33 1.85 -0.08 2.31Q-0.04 2.38 0.01 2.44Q0.26 2.83 0.62 2.96Q0.81 3.03 1.02 3.03Q1.24 3.03 1.43 2.96Q1.78 2.83 2.04 2.44Q2.09 2.38 2.12 2.31Q2.26 2.06 2.32 1.76L14.05 1.76Q15.41 1.76 16.58 2.25Q17.75 2.73 18.72 3.7Q19.68 4.67 20.17 5.83Q20.65 7 20.65 8.37L20.65 39Q20.65 40.57 21.21 41.91Q21.77 43.26 22.88 44.37Q23.99 45.49 25.34 46.04Q26.68 46.6 28.26 46.6L28.45 46.6L26.47 48.58C26.28 48.77 26.28 49.08 26.47 49.28C26.67 49.48 26.98 49.48 27.18 49.28L30.01 46.45C30.21 46.26 30.21 45.95 30.01 45.75L27.18 42.92C26.98 42.72 26.67 42.72 26.47 42.92C26.28 43.12 26.28 43.43 26.47 43.63L28.45 45.6L28.26 45.6Q26.89 45.6 25.72 45.12Q24.55 44.63 23.59 43.67Q22.62 42.7 22.14 41.53Q21.65 40.36 21.65 39L21.65 8.37Q21.65 6.79 21.09 5.45Q20.54 4.11 19.42 2.99Q18.31 1.88 16.97 1.32Q15.62 0.76 14.05 0.76L2.34 0.76Q2.24 0.05 1.83 -0.27ZM0.91 0.52Q0.96 0.5 1.02 0.5Q1.08 0.5 1.13 0.52Q1.37 0.63 1.37 1.26Q1.37 1.9 1.13 2.01Q1.08 2.03 1.02 2.03Q0.96 2.03 0.91 2.01Q0.67 1.9 0.67 1.26Q0.67 0.63 0.91 0.52Z" fill="#E8E7E8" fill-opacity="1.000000" fill-rule="evenodd"/>
	<path id="Frame 483 --&gt; Frame 487" d="M1.02 89.46C0.55 89.46 0.17 90.02 0.17 90.73C0.17 91.43 0.55 92 1.02 92C1.5 92 1.87 91.43 1.87 90.73C1.87 90.02 1.5 89.46 1.02 89.46ZM28.95 45.89L26.47 43.41C26.28 43.22 26.28 42.91 26.47 42.71C26.67 42.51 26.98 42.51 27.18 42.71L30.01 45.54C30.21 45.73 30.21 46.05 30.01 46.24L27.18 49.07C26.98 49.27 26.67 49.27 26.47 49.07C26.28 48.87 26.28 48.56 26.47 48.36L28.95 45.89Z" fill="#FFFFFF" fill-opacity="1.000000" fill-rule="nonzero"/>
	<path id="Frame 483 --&gt; Frame 487" d="M28.45 45.39L26.47 43.41C26.28 43.22 26.28 42.91 26.47 42.71C26.67 42.51 26.98 42.51 27.18 42.71L30.01 45.54C30.21 45.73 30.21 46.05 30.01 46.24L27.18 49.07C26.98 49.27 26.67 49.27 26.47 49.07C26.28 48.87 26.28 48.56 26.47 48.36L28.45 46.39L28.26 46.39Q26.89 46.39 25.72 46.87Q24.55 47.36 23.59 48.32Q22.62 49.29 22.14 50.46Q21.65 51.63 21.65 53L21.65 83.62Q21.65 85.2 21.09 86.54Q20.54 87.89 19.42 89Q18.31 90.11 16.97 90.67Q15.62 91.23 14.05 91.23L2.32 91.23Q2.26 91.52 2.12 91.77Q2.09 91.84 2.04 91.9Q1.78 92.29 1.43 92.42Q1.24 92.5 1.02 92.5Q0.81 92.5 0.62 92.42Q0.26 92.29 0.01 91.9Q-0.04 91.84 -0.08 91.77Q-0.33 91.32 -0.33 90.73Q-0.33 89.61 0.21 89.2Q0.53 88.96 1.02 88.96Q1.52 88.96 1.83 89.2Q2.24 89.51 2.34 90.23L14.05 90.23Q15.41 90.23 16.58 89.74Q17.75 89.26 18.72 88.29Q19.68 87.32 20.17 86.16Q20.65 84.99 20.65 83.62L20.65 53Q20.65 51.42 21.21 50.08Q21.77 48.73 22.88 47.62Q23.99 46.5 25.34 45.95Q26.68 45.39 28.26 45.39L28.45 45.39ZM0.91 89.98Q0.96 89.96 1.02 89.96Q1.08 89.96 1.13 89.98Q1.37 90.09 1.37 90.73Q1.37 91.36 1.13 91.47Q1.08 91.5 1.02 91.5Q0.96 91.5 0.91 91.47Q0.67 91.36 0.67 90.73Q0.67 90.09 0.91 89.98Z" fill="#E8E7E8" fill-opacity="1.000000" fill-rule="evenodd"/>
</svg>
