<svg width="18.000000" height="18.000000" viewBox="0 0 18 18" fill="none" xmlns="http://www.w3.org/2000/svg" xmlns:xlink="http://www.w3.org/1999/xlink">
	<desc>
			Created with Pixso.
	</desc>
	<defs>
		<clipPath id="clip8002_6305">
			<rect id="fluent:checkmark-12-regular" width="18.000000" height="18.000000" transform="translate(-0.500000 -0.500000)" fill="white" fill-opacity="0"/>
		</clipPath>
	</defs>
	<rect id="fluent:checkmark-12-regular" width="18.000000" height="18.000000" transform="translate(-0.500000 -0.500000)" fill="#FFFFFF" fill-opacity="0"/>
	<g clip-path="url(#clip8002_6305)">
		<path id="Vector" d="M14.28 4.21C14.35 4.28 14.4 4.37 14.44 4.46C14.48 4.55 14.5 4.65 14.5 4.74C14.5 4.84 14.48 4.94 14.44 5.03C14.4 5.12 14.35 5.21 14.28 5.28L7.53 12.03C7.46 12.1 7.37 12.15 7.28 12.19C7.19 12.23 7.09 12.25 7 12.25C6.9 12.25 6.8 12.23 6.71 12.19C6.62 12.15 6.54 12.1 6.46 12.03L3.46 9.03C3.32 8.88 3.25 8.69 3.25 8.49C3.25 8.3 3.32 8.1 3.46 7.96C3.61 7.82 3.8 7.74 4 7.74C4.2 7.74 4.39 7.82 4.53 7.96L7 10.43L13.21 4.21C13.29 4.14 13.37 4.09 13.46 4.05C13.55 4.01 13.65 3.99 13.75 3.99C13.84 3.99 13.94 4.01 14.03 4.05C14.12 4.09 14.21 4.14 14.28 4.21Z" fill="#49BC77" fill-opacity="1.000000" fill-rule="nonzero"/>
	</g>
</svg>
